<svg aria-hidden="true" style="position: absolute; width: 0; height: 0; overflow: hidden;" version="1.1" xmlns="http://www.w3.org/2000/svg" xmlns:xlink="http://www.w3.org/1999/xlink">
<defs>
<symbol id="icon-delete" viewBox="0 0 32 32">
<path d="M25.209 3.865c-0.302-0.371-0.553-0.799-0.742-1.239-1.2-2.781-4.466-2.625-4.466-2.625h-7.761c-2.54 0-3.785 1.403-4.395 2.732-0.192 0.42-0.452 0.826-0.764 1.177-0.515 0.583-1.599 0.694-2.155 0.867-0.974 0.302-1.505 1.017-2.058 2.272 0 0-0.24 0.542-0.534 1.21s0.578 1.209 1.95 1.209h23.594c1.372 0 2.148-0.571 1.734-1.275l-0.75-1.275c-0.696-1.183-1.165-1.608-1.9-2.141-0.287-0.208-1.245-0.294-1.752-0.913zM14.658 2.456h5.257c0.906 0 1.49 0.286 1.865 0.666 0.311 0.315 0.311 0.671 0.115 0.989-0.315 0.51-1.948 0.666-3.321 0.666h-5.048c-1.372 0-2.939-0.154-3.184-0.618-0.147-0.279-0.134-0.661 0.079-0.994 0.593-0.933 2.903-0.709 4.238-0.709z"></path>
<path d="M25.017 11.167h-17.936c-1.372 0-2.344 1.103-2.174 2.464l2.002 15.906c0.17 1.361 1.422 2.463 2.793 2.463h12.832c1.371 0 2.615-1.104 2.778-2.466l1.895-15.902c0.162-1.362-0.818-2.465-2.19-2.465zM12.406 28.527c0 0.669-0.583 1.213-1.255 1.213-0.67 0-1.213-0.544-1.213-1.213v-13.884c0-0.672 0.543-1.217 1.213-1.217 0.672 0 1.255 0.546 1.255 1.217v13.884zM17.427 28.527c0 0.669-0.546 1.213-1.214 1.213-0.671 0-1.257-0.544-1.257-1.213v-13.884c0-0.672 0.586-1.217 1.257-1.217 0.669 0 1.214 0.546 1.214 1.217v13.884zM22.174 28.527c0 0.669-0.546 1.213-1.214 1.213-0.671 0-1.257-0.544-1.257-1.213v-13.884c0-0.672 0.586-1.217 1.257-1.217 0.669 0 1.214 0.546 1.214 1.217v13.884z"></path>
</symbol>
<symbol id="icon-edit" viewBox="0 0 32 32">
<path d="M27 0c2.761 0 5 2.239 5 5 0 1.126-0.372 2.164-1 3l-2 2-7-7 2-2c0.836-0.628 1.874-1 3-1zM2 23l-2 9 9-2 18.5-18.5-7-7-18.5 18.5zM22.362 11.362l-14 14-1.724-1.724 14-14 1.724 1.724z"></path>
</symbol>
<symbol id="icon-open" viewBox="0 0 32 32">
<path d="M26 30l6-16h-26l-6 16zM4 12l-4 18v-26h9l4 4h13v4z"></path>
</symbol>
<symbol id="icon-zip" viewBox="0 0 32 32">
<path d="M18 8l-4-4h-14v26h32v-22h-14zM16 27l-7-7h5v-8h4v8h5l-7 7z"></path>
</symbol>
<symbol id="icon-active" viewBox="0 0 32 32">
<path d="M18 8l-4-4h-14v26h32v-22h-14zM16 15l7 7h-5v8h-4v-8h-5l7-7z"></path>
</symbol>
<symbol id="icon-task" viewBox="0 0 32 32">
<path d="M17 0l-3 3 3 3-7 8h-7l5.5 5.5-8.5 11.269v1.231h1.231l11.269-8.5 5.5 5.5v-7l8-7 3 3 3-3-15-15zM14 17l-2-2 7-7 2 2-7 7z"></path>
</symbol>
<symbol id="icon-thought" viewBox="0 0 32 32">
<path d="M16 2c8.837 0 16 5.82 16 13s-7.163 13-16 13c-0.849 0-1.682-0.054-2.495-0.158-3.437 3.437-7.539 4.053-11.505 4.144v-0.841c2.142-1.049 4-2.961 4-5.145 0-0.305-0.024-0.604-0.068-0.897-3.619-2.383-5.932-6.024-5.932-10.103 0-7.18 7.163-13 16-13z"></path>
</symbol>
<symbol id="icon-idea" viewBox="0 0 32 32">
<path d="M30 19v-5c0-1.654-1.346-3-3-3-0.535 0-1.037 0.14-1.472 0.386-0.534-0.833-1.467-1.386-2.528-1.386-0.768 0-1.469 0.29-2 0.766-0.531-0.476-1.232-0.766-2-0.766-0.35 0-0.687 0.060-1 0.171v-7.171c0-1.654-1.346-3-3-3s-3 1.346-3 3v12.334l-5.501-2.932c-0.454-0.262-0.973-0.401-1.499-0.401-1.654 0-3 1.346-3 3 0 0.824 0.327 1.592 0.922 2.163 0.008 0.007 0.015 0.015 0.023 0.022l7.474 6.815h-1.419c-0.552 0-1 0.448-1 1v6c0 0.552 0.448 1 1 1h20c0.552 0 1-0.448 1-1v-6c0-0.552-0.448-1-1-1h-1.382l2.276-4.553c0.069-0.139 0.106-0.292 0.106-0.447zM28 27c0 0.552-0.448 1-1 1s-1-0.448-1-1 0.448-1 1-1 1 0.448 1 1zM28 18.764l-2.618 5.236h-11.995l-9.088-8.286c-0.193-0.19-0.299-0.443-0.299-0.714 0-0.551 0.449-1 1-1 0.171 0 0.332 0.041 0.479 0.122 0.017 0.010 0.033 0.020 0.051 0.029l7 3.732c0.31 0.165 0.684 0.156 0.985-0.025s0.485-0.506 0.485-0.857v-14c0-0.551 0.449-1 1-1s1 0.449 1 1v10c0 0.552 0.448 1 1 1s1-0.448 1-1c0-0.551 0.449-1 1-1s1 0.449 1 1c0 0.552 0.448 1 1 1s1-0.448 1-1c0-0.551 0.449-1 1-1s1 0.449 1 1v1c0 0.552 0.448 1 1 1s1-0.448 1-1c0-0.551 0.449-1 1-1s1 0.449 1 1v4.764z"></path>
</symbol>
<symbol id="icon-add" viewBox="0 0 32 32">
<path d="M31 12h-11v-11c0-0.552-0.448-1-1-1h-6c-0.552 0-1 0.448-1 1v11h-11c-0.552 0-1 0.448-1 1v6c0 0.552 0.448 1 1 1h11v11c0 0.552 0.448 1 1 1h6c0.552 0 1-0.448 1-1v-11h11c0.552 0 1-0.448 1-1v-6c0-0.552-0.448-1-1-1z"></path>
</symbol>
</defs>
</svg>
